<?xml version="1.0" encoding="UTF-8" standalone="no"?>
<!-- Created with Inkscape (http://www.inkscape.org/) -->

<svg
   version="1.1"
   id="svg856"
   width="860"
   height="900"
   viewBox="0 0 860 900"
   sodipodi:docname="error 404.svg"
   inkscape:version="1.1.1 (c3084ef, 2021-09-22)"
   xmlns:inkscape="http://www.inkscape.org/namespaces/inkscape"
   xmlns:sodipodi="http://sodipodi.sourceforge.net/DTD/sodipodi-0.dtd"
   xmlns="http://www.w3.org/2000/svg"
   xmlns:svg="http://www.w3.org/2000/svg">
  <defs
     id="defs860" />
  <sodipodi:namedview
     id="namedview858"
     pagecolor="#ffffff"
     bordercolor="#666666"
     borderopacity="1.0"
     inkscape:pageshadow="2"
     inkscape:pageopacity="0.0"
     inkscape:pagecheckerboard="0"
     showgrid="false"
     inkscape:zoom="0.39756065"
     inkscape:cx="323.22113"
     inkscape:cy="323.22113"
     inkscape:window-width="1312"
     inkscape:window-height="855"
     inkscape:window-x="0"
     inkscape:window-y="23"
     inkscape:window-maximized="0"
     inkscape:current-layer="g862" />
  <g
     inkscape:groupmode="layer"
     inkscape:label="Image"
     id="g862">
    <g
       id="g1036"
       transform="matrix(1.0723536,0,0,1.0597573,-32.37536,-13.559453)">
      <path
         style="fill:#d0d0d0;fill-opacity:1"
         d="m 740.8125,655.64716 c 0.72187,-0.28887 1.58438,-0.25334 1.91667,0.0789 0.33229,0.33229 -0.25834,0.56864 -1.3125,0.52522 -1.16495,-0.048 -1.4019,-0.28494 -0.60417,-0.60416 z m -328,-32 c 0.72187,-0.28887 1.58438,-0.25334 1.91667,0.0789 0.33229,0.33229 -0.25834,0.56864 -1.3125,0.52522 -1.16495,-0.048 -1.4019,-0.28494 -0.60417,-0.60416 z M 524.5,581.33028 c -6.58281,-6.60001 -11.74374,-12 -11.46874,-12 0.275,0 5.88593,5.39999 12.46874,12 6.58281,6.6 11.74374,12 11.46874,12 -0.275,0 -5.88593,-5.4 -12.46874,-12 z m -99.6875,10.31689 c 0.72187,-0.28887 1.58438,-0.25335 1.91667,0.0789 0.33229,0.33228 -0.25834,0.56864 -1.3125,0.52522 -1.16495,-0.048 -1.4019,-0.28494 -0.60417,-0.60416 z m 7.9375,0.0208 c 0.6875,-0.27741 1.8125,-0.27741 2.5,0 0.6875,0.27741 0.125,0.50439 -1.25,0.50439 -1.375,0 -1.9375,-0.22698 -1.25,-0.50439 z m -77.80383,-102.08769 -3.44617,-3.75 3.75,3.44617 c 2.0625,1.89539 3.75,3.58289 3.75,3.75 0,0.76362 -0.84622,0.0442 -4.05383,-3.44617 z m 250.13278,-69.83334 c 0.048,-1.16495 0.28494,-1.40189 0.60416,-0.60416 0.28887,0.72186 0.25335,1.58438 -0.0789,1.91666 -0.33229,0.3323 -0.56864,-0.25834 -0.52522,-1.3125 z m -384.77929,-4.41666 c 0,-3.025 0.18747,-4.26251 0.41659,-2.75 0.22913,1.51249 0.22913,3.98749 0,5.5 -0.22912,1.51249 -0.41659,0.27499 -0.41659,-2.75 z m 72.02041,-1 c 0,-3.57501 0.1815,-5.03751 0.40333,-3.25 0.22182,1.7875 0.22182,4.71249 0,6.5 -0.22183,1.7875 -0.40333,0.32499 -0.40333,-3.25 z m 312.83782,-4 c 0,-1.375 0.22698,-1.9375 0.50439,-1.25 0.27741,0.6875 0.27741,1.8125 0,2.5 -0.27741,0.6875 -0.50439,0.125 -0.50439,-1.25 z m 31.92106,-10.58334 c 0.048,-1.16495 0.28494,-1.40189 0.60416,-0.60416 0.28887,0.72186 0.25335,1.58438 -0.0789,1.91666 -0.33229,0.3323 -0.56864,-0.25834 -0.52522,-1.3125 z M 428.26903,312.63729 c 0.97297,-0.25355 2.32297,-0.23688 3,0.0371 0.67703,0.27392 -0.11903,0.48136 -1.76903,0.46098 -1.65,-0.0204 -2.20394,-0.2445 -1.23097,-0.49804 z M 443.8125,208.64716 c 0.72187,-0.28887 1.58438,-0.25335 1.91667,0.0789 0.33229,0.33229 -0.25834,0.56864 -1.3125,0.52522 -1.16495,-0.048 -1.4019,-0.28494 -0.60417,-0.60416 z M 79.5,194.33027 c 0.995486,-1.1 2.034975,-2 2.309975,-2 0.275,0 -0.314489,0.9 -1.309975,2 -0.995486,1.1 -2.034975,2 -2.309975,2 -0.275,0 0.314489,-0.9 1.309975,-2 z"
         id="path1052" />
      <path
         style="fill:#b9b9b9;fill-opacity:1"
         d="m 802.5,661.33028 c 0.99549,-1.10001 2.03498,-2 2.30998,-2 0.275,0 -0.31449,0.89999 -1.30998,2 -0.99549,1.1 -2.03498,2 -2.30998,2 -0.275,0 0.31449,-0.9 1.30998,-2 z m -723.062909,-23.25 -2.937091,-3.25 3.25,2.93709 c 3.029455,2.73778 3.709652,3.56291 2.937091,3.56291 -0.1721,0 -1.6346,-1.4625 -3.25,-3.25 z M 421.8125,591.64716 c 0.72187,-0.28887 1.58438,-0.25334 1.91667,0.0789 0.33229,0.33229 -0.25834,0.56864 -1.3125,0.52522 -1.16495,-0.048 -1.4019,-0.28494 -0.60417,-0.60416 z M 254.29966,416.33028 c 0,-3.025 0.18747,-4.26251 0.41659,-2.75 0.22913,1.51249 0.22913,3.98749 0,5.5 -0.22912,1.51249 -0.41659,0.27499 -0.41659,-2.75 z M 432.75,312.668 c 0.6875,-0.27742 1.8125,-0.27742 2.5,0 0.6875,0.2774 0.125,0.50438 -1.25,0.50438 -1.375,0 -1.9375,-0.22698 -1.25,-0.50438 z M 223,176.63143 c 21.00922,-0.71079 41.77259,-0.73648 41.34734,-0.0512 -0.25595,0.41249 -11.57632,0.65745 -25.15636,0.54436 C 225.61094,177.01154 218.325,176.78959 223,176.63143 Z m 410.25,-0.0508 c 19.6625,-0.15162 51.8375,-0.15162 71.5,0 19.6625,0.15161 3.575,0.27566 -35.75,0.27566 -39.325,0 -55.4125,-0.12405 -35.75,-0.27566 z"
         id="path1050" />
      <path
         style="fill:#a3a3a3;fill-opacity:1"
         d="m 740.8125,176.64716 c 0.72187,-0.28887 1.58438,-0.25335 1.91667,0.0789 0.33229,0.33229 -0.25834,0.56864 -1.3125,0.52522 -1.16495,-0.048 -1.4019,-0.28494 -0.60417,-0.60416 z M 384.75,96.580525 c 25.4375,-0.14862 67.0625,-0.14862 92.5,0 25.4375,0.14862 4.625,0.27022 -46.25,0.27022 -50.875,0 -71.6875,-0.1216 -46.25,-0.27022 z"
         id="path1048" />
      <path
         style="fill:#8c8c8c;fill-opacity:1"
         d="M 417.49951,427.08028 33.5,42.830275 417.75,426.82979 C 629.0875,638.02952 802,810.94202 802,811.07979 c 0,0.13777 -0.11272,0.25049 -0.25049,0.25049 -0.13777,0 -173.05027,-172.91251 -384.25,-384.25 z m 357.4967,311.5 -49.49621,-49.75 49.75,49.49621 c 27.3625,27.22292 49.75,49.61042 49.75,49.75 0,0.70291 -3.99667,-3.25319 -50.00379,-49.49621 z m -135.49975,-135.5 -52.99646,-53.25 53.25,52.99645 c 49.49732,49.26166 53.69901,53.50355 52.99646,53.50355 -0.13944,0 -24.10194,-23.9625 -53.25,-53.25 z m 189.66143,-1.75 c 0,-1.375 0.22698,-1.9375 0.50439,-1.25 0.27741,0.6875 0.27741,1.8125 0,2.5 -0.27741,0.6875 -0.50439,0.125 -0.50439,-1.25 z m -798.668431,-185 c 0,-101.47501 0.117215,-142.98751 0.260477,-92.25 0.143262,50.73749 0.143262,133.76249 0,184.5 -0.143262,50.73749 -0.260477,9.225 -0.260477,-92.25 z m 31.999944,0 c 0,-100.92501 0.11724,-142.2125 0.260532,-91.75 0.143293,50.46249 0.143293,133.0375 0,183.5 -0.143292,50.46249 -0.260532,9.17499 -0.260532,-91.75 z m 487.496707,97.25 -13.48611,-13.75 13.75,13.48611 c 12.77286,12.52772 14.20306,14.01389 13.48611,14.01389 -0.14515,0 -6.33265,-6.1875 -13.75,-13.75 z m -109.48871,-109.5 -71.9974,-72.25 72.25,71.99739 c 39.7375,39.59857 72.25,72.11106 72.25,72.25 0,0.13893 -0.11367,0.2526 -0.2526,0.2526 -0.13894,0 -32.65144,-32.5125 -72.25,-72.24999 z m -186.41845,20.66666 c 0.048,-1.16495 0.28494,-1.40189 0.60416,-0.60416 0.28887,0.72186 0.25335,1.58438 -0.0789,1.91666 -0.3323,0.3323 -0.56864,-0.25834 -0.52522,-1.3125 z m 248.79349,-82.16666 c -1.24387,-1.58606 -1.2085,-1.62144 0.37756,-0.37757 0.9625,0.75485 1.75,1.54235 1.75,1.75 0,0.82304 -0.82119,0.29332 -2.12756,-1.37243 z m -171.38584,-47.5 -13.9866,-14.25 14.25,13.98659 c 7.8375,7.69263 14.25,14.10514 14.25,14.25 0,0.7163 -1.52048,-0.749 -14.5134,-13.98659 z m 241.38584,-29.5 c -1.24387,-1.58606 -1.2085,-1.62144 0.37756,-0.37757 1.66575,1.30638 2.19548,2.12757 1.37244,2.12757 -0.20765,0 -0.99515,-0.78751 -1.75,-1.75 z M 254,217.83027 c -22.26991,-22.275 -40.26574,-40.5 -39.99074,-40.5 0.275,0 18.72083,18.225 40.99074,40.5 22.26991,22.275 40.26574,40.50001 39.99074,40.50001 -0.275,0 -18.72083,-18.22501 -40.99074,-40.50001 z m 575.15789,13.5 c 0,-1.375 0.22698,-1.9375 0.50439,-1.25 0.27741,0.6875 0.27741,1.8125 0,2.5 -0.27741,0.6875 -0.50439,0.125 -0.50439,-1.25 z M 118.99695,82.580275 57.5,20.830275 l 61.75,61.49695 c 57.40065,57.165435 62.19879,62.003045 61.49695,62.003045 -0.13918,0 -27.92668,-27.78749 -61.75,-61.749995 z m 217.81555,14.06689 c 0.72187,-0.28887 1.58438,-0.25335 1.91667,0.0789 0.33229,0.3323 -0.25834,0.56864 -1.3125,0.52522 -1.16495,-0.048 -1.4019,-0.28494 -0.60417,-0.60416 z M 281,88.830275 c 1.29175,-1.375 2.57363,-2.5 2.84863,-2.5 0.275,0 -0.55688,1.125 -1.84863,2.5 -1.29175,1.375 -2.57363,2.5 -2.84863,2.5 -0.275,0 0.55688,-1.125 1.84863,-2.5 z m -250.713986,-56 c 0.0075,-2.75 0.201713,-3.756313 0.431567,-2.23625 0.229855,1.520062 0.223712,3.770062 -0.01365,5 -0.237362,1.229937 -0.425424,-0.01375 -0.417917,-2.76375 z M 44.75,16.624542 c 1.2375,-0.238353 3.2625,-0.238353 4.5,0 1.2375,0.238353 0.225,0.433369 -2.25,0.433369 -2.475,0 -3.4875,-0.195016 -2.25,-0.433369 z"
         id="path1046" />
      <path
         style="fill:#767676;fill-opacity:1"
         d="m 612.9879,671.58028 -15.4879,-15.75 15.75,15.48789 c 8.6625,8.51836 15.75,15.60586 15.75,15.75 0,0.71455 -1.62372,-0.85603 -16.0121,-15.48789 z m -327.11546,-105 c -1.24387,-1.58606 -1.2085,-1.62144 0.37756,-0.37757 0.9625,0.75486 1.75,1.54236 1.75,1.75 0,0.82304 -0.82119,0.29332 -2.12756,-1.37243 z m -8,-8 c -1.24387,-1.58606 -1.2085,-1.62144 0.37756,-0.37757 0.9625,0.75486 1.75,1.54236 1.75,1.75 0,0.82304 -0.82119,0.29332 -2.12756,-1.37243 z m 191.61313,-30.5 -12.98557,-13.25 13.25,12.98557 c 12.30814,12.06251 13.70324,13.51443 12.98557,13.51443 -0.14543,0 -6.10793,-5.9625 -13.25,-13.25 z m -166.61313,10.5 c -1.24387,-1.58606 -1.2085,-1.62144 0.37756,-0.37757 0.9625,0.75486 1.75,1.54236 1.75,1.75 0,0.82304 -0.82119,0.29332 -2.12756,-1.37243 z m 13.04943,-163.76034 c -6.91797,-6.86932 -12.31122,-12.48966 -11.985,-12.48966 0.32623,0 6.20464,5.625 13.06313,12.5 6.85849,6.875 12.25174,12.49534 11.98499,12.48966 -0.26674,-0.006 -6.14515,-5.63068 -13.06312,-12.5 z m 189.95057,-29.23966 c -1.24387,-1.58606 -1.2085,-1.62144 0.37756,-0.37757 0.9625,0.75485 1.75,1.54235 1.75,1.75 0,0.82304 -0.82119,0.29332 -2.12756,-1.37243 z m -242.88875,-24 -11.48369,-11.75 11.75,11.48369 c 6.4625,6.31602 11.75,11.60353 11.75,11.75 0,0.72016 -1.34959,-0.5696 -12.01631,-11.48369 z m 313.94062,-52 -2.42431,-2.75 2.75,2.42431 c 1.5125,1.33337 2.75,2.57087 2.75,2.75 0,0.78427 -0.8098,0.14598 -3.07569,-2.42431 z M 436.8125,208.64716 c 0.72187,-0.28887 1.58438,-0.25335 1.91667,0.0789 0.33229,0.33229 -0.25834,0.56864 -1.3125,0.52522 -1.16495,-0.048 -1.4019,-0.28494 -0.60417,-0.60416 z M 104.48557,163.08027 91.5,149.83027 l 13.25,12.98557 c 12.30814,12.06251 13.70324,13.51443 12.98557,13.51443 -0.14543,0 -6.10793,-5.9625 -13.25,-13.25 z M 740.8125,144.64716 c 0.72187,-0.28887 1.58438,-0.25335 1.91667,0.0789 0.33229,0.33229 -0.25834,0.56864 -1.3125,0.52522 -1.16495,-0.048 -1.4019,-0.28494 -0.60417,-0.60416 z M 383.25,64.580517 c 25.7125,-0.14851 67.7875,-0.14851 93.5,0 25.7125,0.14851 4.675,0.270018 -46.75,0.270018 -51.425,0 -72.4625,-0.121508 -46.75,-0.270018 z"
         id="path1044" />
      <path
         style="fill:#606060;fill-opacity:1"
         d="m 116.8125,687.64716 c 0.72187,-0.28887 1.58437,-0.25334 1.91667,0.0789 0.33229,0.33229 -0.25834,0.56864 -1.3125,0.52522 -1.16495,-0.048 -1.4019,-0.28494 -0.60417,-0.60416 z m 625,0 c 0.72187,-0.28887 1.58438,-0.25334 1.91667,0.0789 0.33229,0.33229 -0.25834,0.56864 -1.3125,0.52522 -1.16495,-0.048 -1.4019,-0.28494 -0.60417,-0.60416 z M 420.75,623.668 c 0.6875,-0.27742 1.8125,-0.27742 2.5,0 0.6875,0.27741 0.125,0.50438 -1.25,0.50438 -1.375,0 -1.9375,-0.22698 -1.25,-0.50438 z m 15,0 c 0.6875,-0.27742 1.8125,-0.27742 2.5,0 0.6875,0.27741 0.125,0.50438 -1.25,0.50438 -1.375,0 -1.9375,-0.22698 -1.25,-0.50438 z M 829.48935,416.33028 c 0,-100.375 0.11726,-141.4375 0.26058,-91.25 0.14333,50.1875 0.14333,132.3125 0,182.5 -0.14332,50.1875 -0.26058,9.125 -0.26058,-91.25 z m -547.56504,146.25 -2.42431,-2.75 2.75,2.42431 c 2.57029,2.26589 3.20859,3.07569 2.42431,3.07569 -0.17912,0 -1.41662,-1.2375 -2.75,-2.75 z M 421.8125,551.64716 c 0.72187,-0.28887 1.58438,-0.25334 1.91667,0.0789 0.33229,0.33229 -0.25834,0.56864 -1.3125,0.52522 -1.16495,-0.048 -1.4019,-0.28494 -0.60417,-0.60416 z m 15.9375,0.0208 c 0.6875,-0.27741 1.8125,-0.27741 2.5,0 0.6875,0.27742 0.125,0.50439 -1.25,0.50439 -1.375,0 -1.9375,-0.22698 -1.25,-0.50439 z m -104.34501,-39.58768 -1.90499,-2.25 2.25,1.90499 c 2.11444,1.79021 2.70524,2.59501 1.90499,2.59501 -0.18976,0 -1.20226,-1.01251 -2.25,-2.25 z m 303.78996,-88.25 c 0.0204,-1.65 0.2445,-2.20394 0.49804,-1.23098 0.25354,0.97297 0.23687,2.32298 -0.0371,3 -0.27393,0.67704 -0.48137,-0.11903 -0.46099,-1.76902 z m -72.116,-0.0833 c 0.048,-1.16495 0.28494,-1.40191 0.60416,-0.60418 0.28887,0.72188 0.25335,1.58438 -0.0789,1.91668 -0.33229,0.33228 -0.56864,-0.25834 -0.52522,-1.3125 z m 72.116,-14.9167 c 0.0204,-1.65 0.2445,-2.20394 0.49804,-1.23098 0.25354,0.97297 0.23687,2.32298 -0.0371,3 -0.27393,0.67704 -0.48137,-0.11903 -0.46099,-1.76902 z m -72.116,-0.0833 c 0.048,-1.16495 0.28494,-1.40191 0.60416,-0.60418 0.28887,0.72188 0.25335,1.58438 -0.0789,1.91668 -0.33229,0.33228 -0.56864,-0.25834 -0.52522,-1.3125 z m -39.67396,-88.6667 -1.90499,-2.25 2.25,1.90499 c 1.2375,1.04773 2.25,2.06024 2.25,2.25 0,0.80025 -0.80479,0.20944 -2.59501,-1.90499 z M 424.76166,280.62301 c 1.24391,-0.23919 3.04391,-0.23011 4,0.0202 0.95609,0.25029 -0.0617,0.446 -2.26166,0.43491 -2.2,-0.0111 -2.98225,-0.2159 -1.73834,-0.45509 z m 7.48834,0.0179 c 0.9625,-0.25152 2.5375,-0.25152 3.5,0 0.9625,0.25153 0.175,0.45734 -1.75,0.45734 -1.925,0 -2.7125,-0.20581 -1.75,-0.45734 z m -5.5,-72.03407 c 1.7875,-0.22182 4.7125,-0.22182 6.5,0 1.7875,0.22183 0.325,0.40333 -3.25,0.40333 -3.575,0 -5.0375,-0.1815 -3.25,-0.40333 z M 192,144.62047 c 28.99088,-0.70519 53.77057,-0.72386 53.34683,-0.0402 -0.25568,0.4125 -14.95081,0.65324 -32.65585,0.53497 C 194.98594,144.99697 185.675,144.77433 192,144.62047 Z m 454.32227,-0.0398 c 17.50225,-0.15328 45.85225,-0.15319 63,2.2e-4 17.14775,0.1534 2.82773,0.27882 -31.82227,0.2787 -34.65,-1.2e-4 -48.67998,-0.12563 -31.17773,-0.27892 z M 303,111.95272 c 0,-0.20765 0.7875,-0.99515 1.75,-1.75 1.58606,-1.24387 1.62143,-1.2085 0.37756,0.37756 C 303.82119,112.24603 303,112.77576 303,111.95272 Z"
         id="path1042" />
      <path
         style="fill:#494949;fill-opacity:1"
         d="m 246.25,687.58031 c 70.2625,-0.1417 185.2375,-0.1417 255.5,0 70.2625,0.1417 12.775,0.25764 -127.75,0.25764 -140.525,0 -198.0125,-0.11594 -127.75,-0.25764 z m 482.5,0.0178 c 2.3375,-0.21053 6.1625,-0.21053 8.5,0 2.3375,0.21054 0.425,0.38279 -4.25,0.38279 -4.675,0 -6.5875,-0.17226 -4.25,-0.38279 z M 426.76791,623.60554 c 1.79735,-0.22256 4.49735,-0.21797 6,0.0102 1.50265,0.22818 0.0321,0.41027 -3.26791,0.40466 -3.3,-0.006 -4.52944,-0.1923 -2.73209,-0.41487 z M 799.48935,416.33028 c 0,-100.375 0.11726,-141.4375 0.26058,-91.25 0.14333,50.1875 0.14333,132.3125 0,182.5 -0.14332,50.1875 -0.26058,9.125 -0.26058,-91.25 z M 433.75,551.668 c 0.6875,-0.27742 1.8125,-0.27742 2.5,0 0.6875,0.27741 0.125,0.50438 -1.25,0.50438 -1.375,0 -1.9375,-0.22698 -1.25,-0.50438 z M 324.15789,419.33028 c 0,-1.375 0.22698,-1.9375 0.50439,-1.25 0.27741,0.6875 0.27741,1.8125 0,2.5 -0.27741,0.6875 -0.50439,0.125 -0.50439,-1.25 z m 313.14177,-3 c 0,-3.025 0.18747,-4.26251 0.41659,-2.75 0.22913,1.51249 0.22913,3.98749 0,5.5 -0.22912,1.51249 -0.41659,0.27499 -0.41659,-2.75 z m -313.14177,-3 c 0,-1.375 0.22698,-1.9375 0.50439,-1.25 0.27741,0.6875 0.27741,1.8125 0,2.5 -0.27741,0.6875 -0.50439,0.125 -0.50439,-1.25 z M 427.75,238.62454 c 1.2375,-0.23836 3.2625,-0.23836 4.5,0 1.2375,0.23835 0.225,0.43337 -2.25,0.43337 -2.475,0 -3.4875,-0.19502 -2.25,-0.43337 z m 149.65499,-150.544265 -1.90499,-2.25 2.25,1.90499 c 1.2375,1.04774 2.25,2.06024 2.25,2.25 0,0.80025 -0.80479,0.20945 -2.59501,-1.90499 z"
         id="path1040" />
      <path
         style="fill:#333333;fill-opacity:1"
         d="m 808.54494,814.83373 c -3.18809,-1.13558 -78.9633,-76.41849 -390.75,-388.21142 L 31,39.819658 v -6.294352 c 0,-7.470217 1.687632,-11.220824 6.34379,-14.098488 4.039955,-2.49683 12.372721,-2.831603 16.45587,-0.661123 1.485187,0.789481 30.82399,29.589481 65.19734,64 l 62.497,62.564575 h 31.61355 31.61356 l 14.66749,-23.88598 c 9.02576,-14.69843 16.98672,-26.417015 20.69707,-30.466205 10.75985,-11.74247 26.84457,-20.718318 43.12217,-24.063693 6.73065,-1.383284 20.33304,-1.584117 107.29216,-1.584117 86.8422,0 100.56251,0.202051 107.22922,1.579099 16.43951,3.395673 30.283,11.226421 41.77078,23.628181 4.93894,5.33189 11.26289,14.510905 21.4781,31.174835 l 14.4781,23.61788 h 66.08824 c 41.76544,0 68.27204,0.3868 72.0219,1.05098 29.6316,5.24841 54.45141,24.44367 67.37333,52.10551 8.28114,17.72738 7.56033,-3.04219 7.56033,217.84352 v 196.5 l -2.29681,7.93178 c -9.07672,31.34546 -34.60893,56.20558 -65.8693,64.13542 -7.70424,1.95435 -12.12179,2.4328 -22.46211,2.4328 -7.07948,0 -12.87178,0.33172 -12.87178,0.73715 0,0.40544 23.14047,23.91794 51.42327,52.25 45.51743,45.59673 51.55135,52.00095 52.53854,55.76285 2.12636,8.10293 -2.93232,16.94717 -11.02005,19.2667 -4.27205,1.2252 -4.56036,1.20946 -9.39682,-0.51325 z M 753.5399,654.81524 c 21.0149,-5.3419 37.50423,-21.40688 44.12041,-42.98496 1.7586,-5.73554 1.83969,-14.33066 1.83969,-195 0,-175.78873 -0.12043,-189.43512 -1.72282,-195.22468 -5.39869,-19.50585 -19.80036,-35.11263 -38.79975,-42.04645 L 751.5,176.83027 674.78803,176.5506 598.07606,176.27094 580.90062,147.5506 c -14.71939,-24.61338 -18.19253,-29.72178 -24.28803,-35.72361 -3.91193,-3.8518 -9.39628,-8.22449 -12.18745,-9.71709 -11.10825,-5.940195 -7.97689,-5.780985 -113.38524,-5.764845 -106.36695,0.0163 -103.3873,-0.14487 -115.36553,6.239455 -10.4846,5.58824 -13.89539,9.93664 -33.7249,42.99576 l -18.44445,30.75 h -25.49794 -25.49793 l 40.99085,41 c 22.54497,22.55 41.29538,41.00001 41.66757,41.00001 0.3722,0 4.43677,-2.8359 9.03239,-6.30201 64.82246,-48.8903 149.12703,-56.53874 220.9429,-20.04479 60.55347,30.77085 102.34733,90.86146 110.80968,159.32056 1.51099,12.22367 1.2611,40.76536 -0.46312,52.89614 -1.64984,11.60747 -5.0764,25.90621 -9.04348,37.73761 -6.12606,18.27033 -20.57798,44.56577 -32.91678,59.89249 -2.65667,3.29999 -5.29297,6.59299 -5.85843,7.31777 -0.78487,1.00599 11.49375,13.84132 51.89704,54.25 l 52.92515,52.93223 h 27.54344 c 21.31521,0 28.89116,-0.34259 33.50354,-1.51504 z M 570.67872,519.0598 c 16.60796,-22.12037 27.97198,-47.95245 33.09491,-75.22953 2.13392,-11.36212 2.3761,-45.31255 0.40303,-56.5 -6.68015,-37.87686 -21.79613,-68.14811 -47.11819,-94.35882 -15.79498,-16.34929 -31.60452,-27.7794 -51.34533,-37.12205 -59.98553,-28.3891 -132.38401,-20.32802 -183.58267,20.44067 l -5.36954,4.27568 14.3566,14.38226 c 7.89613,7.91024 14.63104,14.38227 14.96646,14.38227 0.33543,0 4.27247,-2.45153 8.74898,-5.44782 13.32879,-8.92147 27.82253,-15.16605 45.66703,-19.67547 11.82851,-2.98915 37.77046,-3.71136 51.60767,-1.43673 56.6347,9.30988 101.53766,53.84599 111.47072,110.56002 2.18063,12.45057 2.18063,33.54941 0,46 -3.22685,18.42405 -10.53786,36.54899 -21.31949,52.85376 l -5.52399,8.35378 13.36865,13.39622 c 7.35276,7.36793 13.5999,13.38702 13.88255,13.37576 0.28264,-0.0112 3.29432,-3.72375 6.69261,-8.25 z m -51.44743,-49.47952 c 9.43538,-15.79624 13.69141,-29.86163 14.49156,-47.89193 1.30724,-29.45668 -7.99409,-55.41539 -27.34537,-76.31707 C 479.44637,316.28246 435.30929,304.97878 397,317.35925 c -8.07087,2.60828 -21.50345,9.14698 -25.5,12.41287 l -3,2.45153 72.49741,72.55332 c 39.87358,39.90431 72.74655,72.55331 73.05104,72.55331 0.3045,0 2.63677,-3.48751 5.18284,-7.75 z M 107,686.63767 c -37.849404,-6.36248 -69.11091,-37.83796 -74.970938,-75.48408 -0.832227,-5.34641 -1.054908,-59.15296 -0.824909,-199.32331 0.353789,-215.6137 -0.38363,-195.48331 7.808994,-213.17331 9.944962,-21.47376 25.94771,-37.13711 47.794626,-46.78098 l 4.307774,-1.90157 12.962443,12.92792 12.96245,12.92793 -7.48504,1.71971 c -23.035727,5.29254 -41.232277,23.59382 -46.043961,46.30898 -2.216698,10.46466 -2.223356,374.41506 -0.007,384.97132 4.561501,21.72632 23.179427,40.91359 44.598711,45.96256 5.60748,1.3218 36.20083,1.5097 247.90899,1.52266 l 241.51206,0.0148 15.4758,15.5 15.4758,15.5 -259.4879,-0.13618 C 226.26956,687.11919 108.375,686.86879 107,686.63767 Z m 296.59666,-64.4462 c -46.7046,-5.993 -89.88107,-27.72631 -123.16371,-61.99568 -33.93642,-34.94255 -54.03696,-79.39267 -58.49964,-129.36551 -2.50683,-28.07131 1.90525,-58.25552 12.57177,-86.00684 4.01639,-10.44952 11.93393,-27.18116 15.276,-32.2818 l 1.54377,-2.35609 11.76846,11.7378 11.76846,11.7378 -3.02044,5.98344 c -6.64689,13.16742 -12.8983,32.97392 -15.9976,50.68569 -1.73594,9.9204 -1.72847,43.14363 0.0119,53 3.59335,20.35041 9.28477,37.70942 17.71554,54.03294 24.73321,47.88804 69.39319,81.22424 123.42883,92.13276 9.97214,2.01314 14.35644,2.31543 33,2.2754 18.41941,-0.0395 23.00447,-0.36913 32,-2.30021 14.55631,-3.12483 28.93588,-8.08683 41.04538,-14.16367 l 10.26832,-5.15288 11.56549,11.56548 c 7.4026,7.4026 11.21551,11.90706 10.59315,12.51445 -1.96957,1.9222 -25.27675,12.99018 -34.97234,16.60745 -12.49324,4.66104 -29.05173,8.89418 -42.74293,10.92713 -11.54317,1.71399 -42.22942,1.95328 -54.16041,0.42234 z m 14.03886,-70.9317 c -46.58829,-4.09765 -88.30727,-32.89339 -109.53331,-75.6033 -5.81726,-11.70518 -9.35992,-22.01993 -12.26896,-35.72213 -2.84976,-13.42296 -3.06921,-35.17251 -0.485,-48.06778 1.61568,-8.06227 7.23464,-27.3535 8.29746,-28.48715 0.23248,-0.24798 5.96195,5.07508 12.73215,11.82902 l 12.30944,12.27989 -1.91364,7.67098 c -2.2793,9.13672 -2.73367,29.21739 -0.88634,39.17098 7.45946,40.19225 36.44321,71.86621 75.61268,82.63087 15.80528,4.34365 38.98769,4.28373 51.5064,-0.13313 l 3.7106,-1.30918 12.77999,12.80843 12.77999,12.80842 -2.88849,1.46112 c -13.29347,6.7244 -40.46151,10.53564 -61.75297,8.66296 z"
         id="path1038" />
    </g>
  </g>
</svg>
